<?xml version="1.0" standalone="no"?>
<!DOCTYPE svg PUBLIC "-//W3C//DTD SVG 1.1//EN" "http://www.w3.org/Graphics/SVG/1.1/DTD/svg11.dtd">
<svg width="100%" height="100%" viewBox="0 0 1280 400" version="1.1" xmlns="http://www.w3.org/2000/svg" xmlns:xlink="http://www.w3.org/1999/xlink" xml:space="preserve" style="fill-rule:evenodd;clip-rule:evenodd;stroke-linejoin:round;stroke-miterlimit:1.41421;">
    <g id="Layer1" transform="matrix(1,0,0,1,0,-200)">
        <g transform="matrix(0.984651,0,0,0.984651,90.866,175.08)">
            <path d="M289.974,122.416L348.15,122.704C360.63,122.704 371.382,125.488 380.406,131.056C389.43,136.624 396.822,143.872 402.582,152.8C408.342,161.728 412.614,171.76 415.398,182.896C418.182,194.032 419.574,205.168 419.574,216.304C419.574,227.44 417.894,238.384 414.534,249.136C411.174,259.888 406.326,269.488 399.99,277.936C393.654,286.384 386.022,293.2 377.094,298.384C368.166,303.568 358.23,306.16 347.286,306.16C341.526,306.16 335.862,305.44 330.294,304C324.726,302.56 319.494,300.784 314.598,298.672C309.702,296.56 305.142,294.16 300.918,291.472C296.694,288.784 293.046,286.192 289.974,283.696L289.974,122.416ZM311.286,137.104L311.286,278.8C314.742,282.064 319.35,284.992 325.11,287.584C330.87,290.176 336.822,291.472 342.966,291.472C351.798,291.472 359.526,289.216 366.15,284.704C372.774,280.192 378.294,274.432 382.71,267.424C387.126,260.416 390.39,252.592 392.502,243.952C394.614,235.312 395.67,226.864 395.67,218.608C395.67,208.816 394.854,199.024 393.222,189.232C391.59,179.44 388.47,170.704 383.862,163.024C379.254,155.344 372.966,149.104 364.998,144.304C357.03,139.504 346.71,137.104 334.038,137.104L311.286,137.104Z" style="fill:rgb(100,100,100);fill-rule:nonzero;"/>
            <path d="M552.918,304.144L552.918,218.032L466.806,218.032L466.806,304.144L445.494,304.144L445.494,126.448L466.806,119.248L466.806,203.056L552.918,203.056L552.918,122.704L574.23,122.704L574.23,304.144L552.918,304.144Z" style="fill:rgb(100,100,100);fill-rule:nonzero;"/>
            <path d="M737.238,282.832C726.678,291.088 716.166,296.992 705.702,300.544C695.238,304.096 684.054,305.872 672.15,305.872L671.862,305.872C660.15,305.872 649.782,302.848 640.758,296.8C631.734,290.752 624.15,283.024 618.006,273.616C611.862,264.208 607.254,253.936 604.182,242.8C601.11,231.664 599.766,220.912 600.15,210.544C600.342,199.792 602.022,188.944 605.19,178C608.358,167.056 613.014,157.168 619.158,148.336C625.302,139.504 632.982,132.352 642.198,126.88C651.414,121.408 662.166,118.768 674.454,118.96C684.822,119.152 694.422,120.448 703.254,122.848C712.086,125.248 720.054,129.04 727.158,134.224L719.67,146.896C712.95,142.48 706.134,139.408 699.222,137.68C692.31,135.952 685.11,135.088 677.622,135.088C668.022,135.088 660.006,137.584 653.574,142.576C647.142,147.568 641.958,153.808 638.022,161.296C634.086,168.784 631.302,176.944 629.67,185.776C628.038,194.608 627.126,202.96 626.934,210.832C626.934,215.632 627.27,220.96 627.942,226.816C628.614,232.672 629.766,238.48 631.398,244.24C633.03,250 635.19,255.568 637.878,260.944C640.566,266.32 643.734,271.072 647.382,275.2C651.03,279.328 655.254,282.64 660.054,285.136C664.854,287.632 670.326,288.88 676.47,288.88C681.654,288.88 686.31,288.496 690.438,287.728C694.566,286.96 698.55,285.76 702.39,284.128C706.23,282.496 710.262,280.528 714.486,278.224C718.71,275.92 723.606,273.232 729.174,270.16L737.238,282.832Z" style="fill:rgb(100,100,100);fill-rule:nonzero;"/>
            <path d="M763.158,304.144L763.158,122.416L783.03,122.416C788.79,122.416 795.03,122.368 801.75,122.272C808.47,122.176 814.71,122.128 820.47,122.128C827.766,122.128 834.534,123.376 840.774,125.872C847.014,128.368 852.438,131.824 857.046,136.24C861.654,140.656 865.302,145.84 867.99,151.792C870.678,157.744 872.022,164.176 872.022,171.088C872.022,178 870.822,184.384 868.422,190.24C866.022,196.096 862.662,201.184 858.342,205.504C854.022,209.824 848.886,213.184 842.934,215.584C836.982,217.984 830.55,219.184 823.638,219.184L784.182,219.184L784.182,304.144L763.158,304.144ZM817.302,204.784C827.286,204.784 835.35,201.616 841.494,195.28C847.638,188.944 850.71,180.688 850.71,170.512C850.71,166.288 849.846,162.16 848.118,158.128C846.39,154.096 844.038,150.544 841.062,147.472C838.086,144.4 834.63,141.952 830.694,140.128C826.758,138.304 822.486,137.392 817.878,137.392L784.182,137.392L784.182,204.784L817.302,204.784Z" style="fill:rgb(100,100,100);fill-rule:nonzero;"/>
            <path d="M994.134,304.144L932.214,211.696L918.966,226.096L918.966,304.144L897.942,304.144L897.942,126.16L918.966,118.96L918.966,203.92L995.862,118.96L1007.67,128.752L947.19,195.28L1019.48,304.144L994.134,304.144Z" style="fill:rgb(100,100,100);fill-rule:nonzero;"/>
            <path d="M1042.52,133.936C1042.52,130.096 1043.86,126.88 1046.55,124.288C1049.24,121.696 1052.5,120.4 1056.34,120.4C1060.18,120.4 1063.4,121.744 1065.99,124.432C1068.58,127.12 1069.88,130.384 1069.88,134.224C1069.88,138.064 1068.53,141.28 1065.85,143.872C1063.16,146.464 1059.89,147.76 1056.05,147.76C1052.21,147.76 1049,146.464 1046.41,143.872C1043.81,141.28 1042.52,138.064 1042.52,134.224L1042.52,133.936ZM1045.97,304.144L1045.97,181.744L1066.71,174.832L1066.71,304.144L1045.97,304.144Z" style="fill:rgb(100,100,100);fill-rule:nonzero;"/>
            <path d="M1154.84,305.872C1140.82,307.216 1129.88,305.008 1122.01,299.248C1114.13,293.488 1110.2,285.136 1110.2,274.192L1110.2,191.536L1095.8,191.536L1095.8,178L1110.2,178L1110.2,142.864L1131.22,135.376L1131.22,178L1154.84,178L1154.84,191.536L1131.22,191.536L1131.22,273.616C1131.22,282.064 1133.33,287.632 1137.56,290.32C1141.78,293.008 1147.54,294.544 1154.84,294.928L1154.84,305.872Z" style="fill:rgb(100,100,100);fill-rule:nonzero;"/>
        </g>
        <g>
            <g transform="matrix(0.73378,0,0,0.73378,-60.4566,201.582)">
                <path d="M286.235,79.671C278.162,79.036 270.051,79.036 261.977,79.671L255.653,117.454C251.61,118.095 247.603,118.947 243.649,120.005L222.504,88.062C214.87,90.765 207.46,94.064 200.343,97.928L209.933,135.017C206.501,137.247 203.187,139.655 200.005,142.23L167.695,121.649C161.821,127.223 156.394,133.251 151.464,139.675L175.309,169.657C173.081,173.091 171.033,176.638 169.174,180.285L131.286,174.624C128.187,182.106 125.68,189.82 123.79,197.695L157.769,215.385C157.129,219.428 156.701,223.502 156.486,227.59L119.572,237.829C119.784,245.925 120.631,253.991 122.107,261.954L160.344,264.294C161.404,268.248 162.67,272.144 164.136,275.965L134.578,300.334C138.064,307.643 142.12,314.668 146.706,321.342L182.59,307.928C185.166,311.108 187.907,314.152 190.801,317.047L173.71,351.332C179.868,356.591 186.429,361.359 193.334,365.59L220.659,338.741C224.307,340.598 228.049,342.264 231.87,343.732L230.201,382.004C237.966,384.304 245.899,385.99 253.928,387.047L267.97,351.405C272.058,351.619 276.154,351.619 280.242,351.405L294.284,387.047C302.313,385.99 310.247,384.304 318.011,382.004L316.342,343.732C320.163,342.264 323.905,340.598 327.553,338.741L354.878,365.59C361.783,361.359 368.345,356.591 374.503,351.332L357.411,317.047C360.305,314.152 363.046,311.108 365.623,307.928L401.506,321.342C406.093,314.668 410.148,307.643 413.635,300.334L384.076,275.965C385.542,272.144 386.808,268.248 387.868,264.294L426.105,261.954C427.581,253.991 428.429,245.925 428.641,237.829L391.726,227.59C391.511,223.502 391.083,219.428 390.443,215.385L424.422,197.695C422.532,189.82 420.026,182.106 416.926,174.624L379.039,180.285C377.179,176.638 375.131,173.091 372.903,169.657L396.749,139.675C391.819,133.251 386.392,127.223 380.517,121.649L348.207,142.23C345.025,139.655 341.712,137.247 338.279,135.017L347.869,97.928C340.752,94.064 333.342,90.765 325.709,88.062L304.563,120.005C300.609,118.947 296.602,118.095 292.56,117.454L286.235,79.671ZM274.106,195.193C295.404,195.193 312.695,212.484 312.695,233.782C312.695,255.08 295.404,272.372 274.106,272.372C252.808,272.372 235.517,255.08 235.517,233.782C235.517,212.484 252.808,195.193 274.106,195.193Z" style="fill:url(#_Linear1);"/>
            </g>
            <g transform="matrix(0.39195,-0.0234453,0.0234453,0.39195,150.593,398.001)">
                <path d="M296.789,80.868C281.749,78.637 266.463,78.637 251.423,80.868L243.742,133.848C237.226,135.827 230.92,138.439 224.912,141.647L182.018,109.616C169.806,118.674 158.997,129.483 149.94,141.695L181.971,184.589C178.763,190.596 176.151,196.902 174.171,203.418L121.192,211.1C118.961,226.139 118.961,241.426 121.192,256.465L174.171,264.147C176.151,270.662 178.763,276.969 181.971,282.976L149.94,325.87C158.997,338.082 169.806,348.891 182.018,357.948L224.912,325.918C230.92,329.125 237.226,331.737 243.742,333.717L251.423,386.697C266.463,388.928 281.749,388.928 296.789,386.697L304.471,333.717C310.986,331.737 317.293,329.125 323.3,325.918L366.194,357.948C378.406,348.891 389.215,338.082 398.272,325.87L366.242,282.976C369.449,276.969 372.061,270.662 374.041,264.147L427.021,256.465C429.251,241.426 429.251,226.139 427.021,211.1L374.041,203.418C372.061,196.902 369.449,190.596 366.242,184.589L398.272,141.695C389.215,129.483 378.406,118.674 366.194,109.616L323.3,141.647C317.293,138.439 310.986,135.827 304.471,133.848L296.789,80.868ZM274.106,194.606C295.728,194.606 313.283,212.16 313.283,233.782C313.283,255.405 295.728,272.959 274.106,272.959C252.484,272.959 234.929,255.405 234.929,233.782C234.929,212.16 252.484,194.606 274.106,194.606Z" style="fill:url(#_Linear2);"/>
            </g>
        </g>
    </g>
    <defs>
        <linearGradient id="_Linear1" x1="0" y1="0" x2="1" y2="0" gradientUnits="userSpaceOnUse" gradientTransform="matrix(230.4,198.213,-200.142,228.18,119.519,79.1948)"><stop offset="0%" style="stop-color:rgb(90,159,212);stop-opacity:1"/><stop offset="100%" style="stop-color:rgb(48,105,152);stop-opacity:1"/></linearGradient>
        <linearGradient id="_Linear2" x1="0" y1="0" x2="1" y2="0" gradientUnits="userSpaceOnUse" gradientTransform="matrix(-82.1087,-115.511,117.291,-80.8628,274.106,333.571)"><stop offset="0%" style="stop-color:rgb(255,212,59);stop-opacity:1"/><stop offset="100%" style="stop-color:rgb(255,232,115);stop-opacity:1"/></linearGradient>
    </defs>
</svg>
